***************************************************

Pinocchio 1940 Bluray 1080p x264 3 Audio - alrmothe

***************************************************
IMDB: 
http://www.imdb.com/title/tt0032910/
Genre: Animation | Adventure | Comedy
Source:Blu-ray Disc
Language:Arabic, English,Russian
File size:4.45 GiB
Overall bit rate:7261Kbps
Duration:1h 27mn 44s
Encoded / Released By: alrmothe
****************************************************

Video
Format : AVC
Format/Info : Advanced Video Codec
Format profile : High@L4.1
Format settings, CABAC : Yes
Format settings, ReFrames : 4 frames
Muxing mode : Header stripping
Codec ID : V_MPEG4/ISO/AVC
Duration : 1h 27mn
Bit rate : 5 597 Kbps
Width : 1 440 pixels
Height : 1 080 pixels
Display aspect ratio : 4:3
Frame rate mode : Constant
Frame rate : 23.976 fps
Color space : YUV
Chroma subsampling : 4:2:0
Bit depth : 8 bits
Scan type : Progressive
Bits/(Pixel*Frame) : 0.150
Stream size : 3.34 GiB (75%)

   Audio #1
Format : AC-3
Format/Info : Audio Coding 3
Mode extension : CM (complete main)
Format settings, Endianness : Big
Muxing mode : Header stripping
Codec ID : A_AC3
Duration : 1h 27mn
Bit rate mode : Constant
Bit rate : 640 Kbps
Channel(s) : 6 channels
Channel positions : Front: L C R, Side: L R, LFE
Sampling rate : 48.0 KHz
Bit depth : 16 bits
Compression mode : Lossy
Stream size : 402 MiB (9%)
Title : DD5.1 640kbps
Language : Arabic
Default : Yes
Forced : No

Audio #2
Format : AC-3
Format/Info : Audio Coding 3
Mode extension : CM (complete main)
Format settings, Endianness : Big
Muxing mode : Header stripping
Codec ID : A_AC3
Duration : 1h 27mn
Bit rate mode : Constant
Bit rate : 640 Kbps
Channel(s) : 6 channels
Channel positions : Front: L C R, Side: L R, LFE
Sampling rate : 48.0 KHz
Bit depth : 16 bits
Compression mode : Lossy
Stream size : 402 MiB (9%)
Title : DD5.1 640kbps
Language : English
Default : No
Forced : No

Audio #3
Format : AC-3
Format/Info : Audio Coding 3
Mode extension : CM (complete main)
Format settings, Endianness : Big
Muxing mode : Header stripping
Codec ID : A_AC3
Duration : 1h 27mn
Bit rate mode : Constant
Bit rate : 384 Kbps
Channel(s) : 6 channels
Channel positions : Front: L C R, Side: L R, LFE
Sampling rate : 48.0 KHz
Bit depth : 16 bits
Compression mode : Lossy
Delay relative to video : 8ms
Stream size : 241 MiB (5%)
Title : DD5.1 384kbps
Language : Russian
Default : No
Forced : No

******************************************************

Screenshots

 
http://img9.imageshack.us/img9/972/19986790.png
 
http://img62.imageshack.us/img62/843/vlcsnap2013010101h58m47.png
 
http://img90.imageshack.us/img90/2097/97579293.png
 
http://img141.imageshack.us/img141/3594/38921313.png
 
http://img19.imageshack.us/img19/4677/pinocchio1940bluray1080.png



******************************************************









.